<svg width="121" height="124" viewBox="0 0 121 124" fill="none" xmlns="http://www.w3.org/2000/svg">
<path id="Vector" d="M106.301 55.6853C89.4888 36.2843 104.393 23.8827 104.393 23.8827C104.393 23.8827 88.8885 23.9032 84.6298 38.2913C85.5313 38.2071 86.4309 38.4414 87.1939 39.1355C92.9383 44.3692 85.4912 51.9921 82.0216 48.5971C77.8573 44.533 80.5157 39.5678 83.7182 38.4892C82.8488 37.5654 81.9855 36.6461 81.1301 35.7586C80.9273 39.2606 76.9337 42.1323 74.7291 39.9774C70.9683 36.3047 73.5103 31.7878 76.4217 30.98C75.5864 30.1495 74.7572 29.3348 73.9339 28.5407C73.2975 31.715 69.6733 34.0884 67.6152 32.0768C64.2239 28.7637 65.9627 24.7702 68.4726 23.423C67.8421 22.8519 67.2076 22.2762 66.5872 21.7278C66.5275 22.1624 66.3895 22.5783 66.1816 22.9497C62.6919 28.923 55.9154 21.2067 58.2044 17.5977C58.6762 16.8536 59.1902 16.3189 59.7263 15.9594C59.3167 15.6362 58.9071 15.304 58.5035 14.9877C58.4152 15.1288 58.3369 15.2676 58.2144 15.4087C53.249 21.0633 49.9782 11.472 51.5825 9.95428C51.5865 9.94973 51.5905 9.94973 51.5945 9.9429C51.2894 9.73883 50.9836 9.5363 50.6769 9.33534C50.5751 9.60434 50.4293 9.84909 50.2472 10.0567C46.3279 14.519 43.7277 7.23959 44.82 5.7605C44.5268 5.59667 44.2397 5.44193 43.9506 5.2872C43.9237 5.39129 43.8845 5.49079 43.8341 5.58301C42.1415 8.55256 39.2321 4.27687 39.4771 3.11408C39.1679 2.97755 38.8546 2.84102 38.5494 2.71587C37.3628 5.84015 33.4957 2.11741 33.9093 1.14804L33.9133 1.14121C33.592 1.05702 33.2708 0.968271 32.9576 0.893179C32.1624 2.74317 30.1486 1.40972 29.3896 0.312922C29.0795 0.286983 28.7688 0.271048 28.4579 0.265137C29.1005 1.15486 29.3896 2.31538 28.8756 3.03671C27.0645 5.57619 24.3318 2.54975 24.7233 0.56778C23.8233 0.757017 22.9446 1.05846 22.1031 1.46661C22.5629 1.57583 23.0026 1.77835 23.3941 2.12878C28.7611 6.93467 21.3983 14.5303 18.1596 11.4061C17.1015 10.3843 16.5453 9.27845 16.3405 8.1862C16.0225 9.07357 15.7824 9.99429 15.6237 10.935C17.3344 10.2637 20.1715 13.5428 17.9086 15.6909C17.236 16.328 16.1257 15.8979 15.3386 15.0378C15.3426 15.395 15.3587 15.7637 15.3787 16.1369C16.3807 16.8946 17.8484 19.6025 15.8827 20.4945C15.949 20.8745 16.0213 21.2613 16.0996 21.6504C16.1538 21.5958 16.208 21.5366 16.2722 21.5025C17.1356 21.0133 20.5068 25.7054 17.4569 26.9501C17.5693 27.3165 17.6757 27.6783 17.7962 28.0514C17.8123 28.031 17.8223 28.0037 17.8404 27.9877C18.5732 27.2755 22.8299 30.8936 20.1193 32.9484C19.9786 33.0555 19.8147 33.1168 19.6454 33.1258C19.8 33.5127 19.9526 33.8972 20.1173 34.2886C20.1394 34.2499 20.1534 34.2067 20.1775 34.1703C21.2377 32.6776 27.952 35.7245 23.9945 40.3483C23.7683 40.6257 23.4815 40.8305 23.1632 40.9422C23.362 41.3427 23.5608 41.7478 23.7676 42.1528C23.8138 42.0663 23.8479 41.9685 23.9021 41.8934C25.2152 40.0434 33.5318 43.8139 28.6286 49.546C28.4519 49.7508 28.2712 49.91 28.0905 50.0375C28.3857 50.5449 28.6929 51.0546 29.0001 51.5666C29.3053 50.8521 29.7851 50.1581 30.524 49.5323C33.6543 46.8882 40.3384 54.7091 35.1622 58.739C35.0598 58.821 34.9473 58.8642 34.8389 58.9256C14.943 55.1688 0.0166016 57.6377 0.0166016 57.6377C0.0166016 57.6377 44.7095 76.4471 61.2162 105.769C70.2515 121.819 86.9128 129.373 99.743 116.938L99.7189 117.058C101.606 119.316 104.666 119.316 106.552 117.056L114.981 106.982C116.458 105.216 116.762 102.595 115.924 100.458C122.594 90.2617 123.894 75.992 106.301 55.6853ZM113.649 85.1122C111.081 85.4149 107.451 76.3538 110.931 75.4527C116.655 73.9736 115.38 84.912 113.649 85.1122ZM102.99 102.101C101.29 99.7675 99.5122 97.5078 97.6608 95.327C99.2069 93.295 101.777 92.2392 103.447 93.7137C106.455 96.3715 105.178 100.071 102.99 102.101ZM46.2496 61.4697C43.6695 57.5853 49.9983 49.4754 54.2208 55.3531C55.8712 57.6513 53.7268 61.9589 50.9399 63.1763C49.4576 62.6658 47.9668 62.1871 46.4684 61.7404C46.3982 61.6449 46.3219 61.5766 46.2496 61.4697ZM43.6795 24.8703C48.8216 29.4145 41.4769 37.0306 38.3788 34.0679C33.2868 29.196 40.3143 21.8939 43.6795 24.8703ZM31.6283 26.4973C26.5344 21.6277 33.5619 14.3233 36.9291 17.3019C42.0672 21.8438 34.7245 29.4623 31.6283 26.4973ZM50.4319 32.4364C55.5741 36.9806 48.2273 44.599 45.1312 41.6385C40.0373 36.7621 47.0668 29.4623 50.4319 32.4364ZM65.1415 64.9034C60.0476 60.0338 67.0751 52.7271 70.4403 55.7058C75.5824 60.2477 68.2377 67.8684 65.1415 64.9034ZM76.6666 62.8896C81.8088 67.4315 74.462 75.0499 71.3639 72.0872C66.272 67.2176 73.2995 59.9178 76.6666 62.8896ZM58.5276 57.5148C53.4337 52.6429 60.4612 45.3408 63.8284 48.3172C68.9665 52.8614 61.6238 60.4775 58.5276 57.5148ZM51.974 49.3093C46.8801 44.4329 53.9076 37.133 57.2747 40.1071C62.4128 44.6513 55.0701 52.2697 51.974 49.3093ZM47.2234 47.275C49.7894 50.8498 43.1896 59.3261 39.2522 53.3939C36.6721 49.5095 43.0009 41.3996 47.2234 47.275ZM53.6646 64.1752C55.307 61.4856 58.6561 59.8609 61.2322 63.4471C61.9932 64.5075 61.935 65.9979 61.3929 67.4133C58.851 66.2319 56.2733 65.1519 53.6646 64.1752ZM83.4351 70.3874C87.0453 73.5777 84.4973 78.2698 81.5899 79.7625C79.8842 78.435 78.144 77.1655 76.3715 75.9556C76.1285 71.8801 80.851 68.1051 83.4351 70.3874ZM96.6529 94.1529C94.8002 91.9948 92.8746 89.9187 90.8803 87.9293C92.3822 85.6629 95.147 84.3795 96.9119 85.9451C99.8333 88.5255 98.723 92.0912 96.6529 94.1529ZM98.3475 85.4513C93.2576 80.5771 100.285 73.2773 103.65 76.2514C108.79 80.7933 101.446 88.4095 98.3475 85.4513ZM91.4846 77.5257C86.3907 72.6515 93.4182 65.3494 96.7834 68.3258C101.924 72.8677 94.5788 80.4861 91.4846 77.5257ZM89.6956 78.4222C92.597 80.989 91.5188 84.5343 89.4728 86.6004C87.4618 84.6812 85.3876 82.8489 83.2544 81.1073C84.6017 78.4177 87.752 76.702 89.6956 78.4222ZM110.748 84.4432C115.888 88.9874 108.543 96.6036 105.447 93.6409C100.355 88.7713 107.383 81.4692 110.748 84.4432ZM109.409 67.5658C113.585 74.4719 106.917 78.1082 104.415 73.7301C100.295 66.535 106.678 63.0443 109.409 67.5658ZM102.257 57.219C108.001 62.4504 100.554 70.0734 97.0806 66.6783C91.3662 61.101 98.4921 53.7921 102.257 57.219ZM94.9623 48.1033C100.707 53.3347 93.2596 60.9577 89.79 57.5626C84.0756 51.9853 91.2015 44.6786 94.9623 48.1033ZM89.6214 60.0634C94.7635 64.603 87.4167 72.2237 84.3226 69.261C79.2287 64.3914 86.2562 57.0893 89.6214 60.0634ZM82.624 51.9853C87.7641 56.5272 80.4213 64.1479 77.3232 61.1829C72.2293 56.3133 79.2588 49.0089 82.624 51.9853ZM75.5583 43.8321C80.6984 48.3763 73.3517 55.9948 70.2555 53.032C65.1616 48.1579 72.1891 40.8558 75.5583 43.8321ZM68.5469 35.7427C73.687 40.2846 66.3422 47.903 63.2461 44.9403C58.1522 40.0684 65.1797 32.7663 68.5469 35.7427ZM61.5475 27.6669C66.6896 32.2065 59.3428 39.8272 56.2467 36.8622C51.1548 31.9926 58.1823 24.6882 61.5475 27.6669ZM54.8673 19.9574C60.0094 24.5016 52.6647 32.1201 49.5666 29.1551C44.4746 24.2855 51.5042 16.9811 54.8673 19.9574ZM47.7695 12.7099C52.9117 17.2541 45.5649 24.8703 42.4688 21.9076C37.3748 17.0357 44.4024 9.73583 47.7695 12.7099ZM40.7741 6.72987C45.4364 10.8554 38.7763 17.7638 35.9653 15.0765C31.3472 10.6529 37.7222 4.03111 40.7741 6.72987ZM33.4194 3.20738C37.2243 6.82317 33.0419 10.9896 30.7308 8.66178C26.93 4.83664 30.9276 0.840842 33.4194 3.20738ZM30.1024 9.64936C35.7806 14.8148 28.3917 22.3809 24.9602 19.029C19.3121 13.5177 26.3818 6.26567 30.1024 9.64936ZM18.0572 20.9336C16.0072 18.0597 19.4708 13.4449 22.7857 17.8344C24.8016 20.5036 21.1895 25.3254 18.0572 20.9336ZM21.1092 29.4236C18.768 25.8988 24.5105 18.5421 28.3415 23.8736C30.6706 27.1185 24.6832 34.8052 21.1092 29.4236ZM26.2915 37.4948C23.7134 33.6105 30.0401 25.5006 34.2627 31.3782C36.8287 34.9531 30.2289 43.4271 26.2915 37.4948ZM32.572 45.689C29.9939 41.8047 36.3207 33.6947 40.5432 39.5724C43.1093 43.1449 36.5095 51.6189 32.572 45.689ZM43.0752 60.3933C43.1776 60.5367 43.2237 60.6983 43.3 60.8507C41.1944 60.2884 39.076 59.7891 36.9472 59.3534C38.5514 57.8425 40.9689 57.5216 43.0752 60.3933ZM106.59 107.36C105.683 105.976 104.75 104.614 103.793 103.275C105.389 101.066 107.873 99.3092 109.003 100.126C111.047 101.607 108.911 105.271 106.59 107.36ZM112.113 98.5788C107.315 101.639 113.461 86.0975 115.525 90.1844C116.539 92.1868 113.872 97.4569 112.113 98.5788Z" fill="#50736F"/>
</svg>
